PathFileType	4	(X/Y/Z)	/Users/itak/Documents/Research/Walk-IL/dataset/trc/00455_00167.trc
DataRate	CameraRate	NumFrames	NumMarkers	Units	OrigDataRate	OrigDataStartFrame	OrigNumFrames
100.000000	100.000000	4	53	mm	100.000000	414	553
Frame#	Time	RPSI			LPSI			L3			STRN			T10			C7			CLAV			RBAK			LBAK			LSHO			LUPA			LAEL			LAOL			LWTS			LWPS			LFRA			LIFD			LHPS			LHTS			RSHO			RUPA			RAEL			RAOL			RWTS			RWPS			RFRA			RIFD			RHTS			RHPS			RBHD			LFHD			RFHD			LBHD			LHIP			RHIP			RASI			LASI			LKNE			LTHI			LANK			LTIP			LTOE			LMT1			LMT5			LHEE			RKNE			RTHI			RANK			RTIP			RTOE			RMT1			RMT5			RHEE			
		X1	Y1	Z1	X2	Y2	Z2	X3	Y3	Z3	X4	Y4	Z4	X5	Y5	Z5	X6	Y6	Z6	X7	Y7	Z7	X8	Y8	Z8	X9	Y9	Z9	X10	Y10	Z10	X11	Y11	Z11	X12	Y12	Z12	X13	Y13	Z13	X14	Y14	Z14	X15	Y15	Z15	X16	Y16	Z16	X17	Y17	Z17	X18	Y18	Z18	X19	Y19	Z19	X20	Y20	Z20	X21	Y21	Z21	X22	Y22	Z22	X23	Y23	Z23	X24	Y24	Z24	X25	Y25	Z25	X26	Y26	Z26	X27	Y27	Z27	X28	Y28	Z28	X29	Y29	Z29	X30	Y30	Z30	X31	Y31	Z31	X32	Y32	Z32	X33	Y33	Z33	X34	Y34	Z34	X35	Y35	Z35	X36	Y36	Z36	X37	Y37	Z37	X38	Y38	Z38	X39	Y39	Z39	X40	Y40	Z40	X41	Y41	Z41	X42	Y42	Z42	X43	Y43	Z43	X44	Y44	Z44	X45	Y45	Z45	X46	Y46	Z46	X47	Y47	Z47	X48	Y48	Z48	X49	Y49	Z49	X50	Y50	Z50	X51	Y51	Z51	X52	Y52	Z52	X53	Y53	Z53	

415	4.14	296.5279846191406	941.027099609375	32.99173355102539	438.9088134765625	937.0310668945312	47.09471893310547	345.1312866210938	1041.15966796875	49.19819641113281	347.0567016601562	1248.126098632812	316.9622192382812	344.2304992675781	1165.357543945312	26.97037315368652	329.4052734375	1434.125854492188	90.85121917724609	349.3558654785156	1359.828735351562	277.0897521972656	233.4464569091797	1315.025512695312	32.56227111816406	429.7204284667969	1387.1455078125	56.14342880249023	512.4874877929688	1414.221923828125	156.4097747802734	611.0272827148438	1297.019409179688	146.4470977783203	646.694580078125	1081.116088867188	169.7175598144531	580.3836059570312	1066.515625	92.10719299316406	602.3526611328125	875.4365844726562	249.0439605712891	660.316162109375	863.42919921875	204.2338104248047	657.091552734375	993.4642333984375	191.9322967529297	611.3768920898438	704.0947875976562	240.9110412597656	660.4815673828125	784.5386352539062	206.2953796386719	612.6012573242188	786.7898559570312	259.4684753417969	170.5063171386719	1410.101318359375	164.3422698974609	94.32611083984375	1349.999633789062	146.3704223632812	33.25096893310547	1067.857177734375	140.0285339355469	75.78577423095703	1054.596557617188	90.10240936279297	64.02946472167969	845.381103515625	214.4210357666016	7.292274475097656	846.4378662109375	145.8325500488281	20.55342674255371	1010.149475097656	137.0825958251953	50.93362426757812	691.98681640625	178.0276641845703	47.3935546875	745.9364624023438	206.2315979003906	5.889724254608154	758.9683837890625	143.4722595214844	249.2415008544922	1632.908569335938	168.7176666259766	416.57861328125	1654.715942382812	288.582275390625	286.5370483398438	1658.0087890625	299.0117797851562	424.6328125	1631.233032226562	137.9856414794922	542.440185546875	847.689697265625	203.7241363525391	148.53857421875	842.583740234375	144.047607421875	199.9299468994141	892.1851806640625	251.9554443359375	454.1788635253906	896.427490234375	285.5114440917969	490.8561706542969	446.3109741210938	326.844970703125	519.6309204101562	596.74462890625	305.844970703125	488.496337890625	34.00873184204102	294.5539245605469	499.9944763183594	294.8742370605469	343.0657348632812	393.8967895507812	39.73600769042969	521.4234619140625	372.6203308105469	47.70802307128906	443.4092102050781	487.6354370117188	39.0362548828125	448.1356811523438	426.7477416992188	39.66801834106445	244.7391967773438	150.6637115478516	459.9687805175781	201.9796295166016	134.15576171875	714.306396484375	201.2918701171875	140.7681121826172	141.4180145263672	-112.3138885498047	136.6819000244141	337.320068359375	121.1685256958008	217.2560882568359	35.81601333618164	49.74991226196289	245.4497985839844	68.52967071533203	-0.4954052269458771	140.1875457763672	55.27181243896484	-15.08342170715332	180.5379638671875	191.3280639648438	-162.8852844238281	
416	4.15	299.257080078125	940.667236328125	37.77217483520508	441.6285705566406	937.5867919921875	52.30240631103516	348.5223388671875	1041.999267578125	54.72372436523438	349.1924438476562	1248.450561523438	322.6689453125	347.9931030273438	1166.321655273438	32.57306671142578	332.5778503417969	1435.043823242188	96.85442352294922	351.5755920410156	1360.248291015625	283.0581359863281	237.0733032226562	1316.01611328125	37.76810836791992	433.0561218261719	1387.939331054688	62.59895706176758	515.2821655273438	1414.993408203125	163.1888275146484	614.1586303710938	1297.97900390625	153.9356079101562	650.7186889648438	1082.38427734375	178.59130859375	585.299560546875	1066.898559570312	100.4063262939453	605.0885620117188	878.4000854492188	260.847900390625	663.5104370117188	865.300048828125	216.9405364990234	660.7991943359375	995.0451049804688	202.3202972412109	613.990966796875	707.1190795898438	257.0427856445312	663.518310546875	786.5458374023438	220.8357238769531	615.0693969726562	790.1699829101562	273.42138671875	173.2943420410156	1410.66650390625	169.5621643066406	97.27646636962891	1350.654418945312	150.8504791259766	35.83266067504883	1068.631591796875	142.3619995117188	78.61526489257812	1055.91259765625	92.19436645507812	67.50275421142578	845.4862060546875	214.5409851074219	9.804506301879883	846.9977416992188	146.5227508544922	23.09272956848145	1011.045349121094	138.9780731201172	55.99290084838867	692.3230590820312	175.1282958984375	51.93057250976562	745.7003173828125	204.4732666015625	9.61479663848877	759.3875122070312	142.4245300292969	251.9617309570312	1633.803833007812	175.1796112060547	419.1878662109375	1655.2138671875	295.3053588867188	289.1088256835938	1658.504516601562	305.5853881835938	427.5021362304688	1632.215209960938	144.6378631591797	544.8579711914062	848.1966552734375	209.2933654785156	150.4561157226562	842.7771606445312	149.5260925292969	201.8512725830078	893.2868041992188	256.9801635742188	456.2261047363281	896.5420532226562	290.5913391113281	492.1055908203125	446.0654296875	329.3248901367188	521.1823120117188	596.7379150390625	309.3583374023438	488.5629577636719	34.02530670166016	294.6132507324219	500.7553100585938	294.4956665039062	344.6724853515625	393.9519958496094	39.6577262878418	521.5487060546875	372.6188354492188	47.69158935546875	443.4816284179688	487.7147827148438	38.88318252563477	448.2127075195312	426.8110656738281	39.72310256958008	244.7514190673828	150.7111053466797	461.6415710449219	213.9977111816406	135.4655151367188	715.62646484375	208.5933074951172	141.6374359130859	146.7381134033203	-102.6549682617188	137.0553588867188	339.4281311035156	132.9565582275391	215.2069396972656	35.79738616943359	58.97657012939453	244.6214447021484	71.09866333007812	9.396005630493164	139.4571685791016	58.78700637817383	-6.541256427764893	181.8395080566406	196.5931549072266	-152.6051635742188	
417	4.16	301.6123046875	940.3988037109375	42.51373672485352	443.960205078125	938.235107421875	57.28535842895508	351.6341247558594	1042.778930664062	60.00261306762695	351.2199096679688	1248.769287109375	328.1848449707031	351.6050109863281	1167.248413085938	37.98766326904297	335.6979370117188	1435.918579101562	102.6940155029297	353.7122802734375	1360.645141601562	288.8119506835938	240.6442718505859	1316.974243164062	42.74250793457031	436.3474426269531	1388.6943359375	68.86882781982422	518.0162353515625	1415.67138671875	169.7906494140625	617.19677734375	1298.811767578125	161.2769470214844	654.70703125	1083.617553710938	187.4106903076172	590.1835327148438	1067.184448242188	108.6721038818359	607.8677368164062	881.4302978515625	272.6158447265625	666.7347412109375	867.2456665039062	229.6299285888672	664.4892578125	996.6292724609375	212.651123046875	616.808349609375	710.3572387695312	273.4644775390625	666.6550903320312	788.69482421875	235.4963226318359	617.6580200195312	793.7285766601562	287.4656982421875	176.0104064941406	1411.180786132812	174.5211334228516	100.1585311889648	1351.230590820312	155.0546722412109	38.32928466796875	1069.3369140625	144.6110534667969	81.31727600097656	1057.08642578125	94.23863983154297	71.0030517578125	845.8250732421875	215.1082611083984	12.29414939880371	847.5126342773438	147.5683898925781	25.59485816955566	1011.837707519531	140.90771484375	60.82391357421875	692.8013916015625	173.3350219726562	56.27898025512695	745.737060546875	203.5660400390625	13.20137119293213	759.7904052734375	142.1310424804688	254.5691986083984	1634.648803710938	181.5319061279297	421.6604309082031	1655.67431640625	301.9469909667969	291.5385437011719	1658.93701171875	312.0623779296875	430.2521362304688	1633.18115234375	151.2063751220703	547.0269775390625	848.7421875	214.5531768798828	152.0213928222656	842.9697265625	154.9634246826172	203.706787109375	894.3805541992188	261.975830078125	458.1393737792969	896.7766723632812	295.4306945800781	493.2887573242188	445.87109375	331.5678405761719	522.48291015625	596.8785400390625	312.806640625	488.6270751953125	34.03058242797852	294.6618347167969	501.5046997070312	294.1685791015625	346.0776062011719	394.0448303222656	39.59536361694336	521.67431640625	372.6421813964844	47.69931793212891	443.5533752441406	487.8037109375	38.71771240234375	448.2857360839844	426.8750305175781	39.77360534667969	244.7575836181641	150.8613586425781	463.3744812011719	225.5489501953125	136.8602294921875	716.9566650390625	215.7099914550781	142.7916259765625	151.112548828125	-92.30972290039062	137.6211547851562	341.4024658203125	144.4906311035156	213.0396728515625	36.08699798583984	69.88205718994141	243.6763610839844	73.39134216308594	20.61030578613281	138.5731048583984	62.41541290283203	3.512091398239136	183.6025695800781	200.3276672363281	-142.0452575683594	
418	4.17	303.6168212890625	940.3153686523438	47.24688339233398	445.9399108886719	938.9812622070312	62.06782531738281	354.4551391601562	1043.533081054688	65.03623199462891	353.1408996582031	1249.121337890625	333.5036010742188	355.0339660644531	1168.159545898438	43.22341156005859	338.75830078125	1436.776611328125	108.3594741821289	355.7655944824219	1361.06201171875	294.3455505371094	244.1475677490234	1317.9306640625	47.50017547607422	439.5834655761719	1389.436157226562	74.94402313232422	520.6814575195312	1416.296142578125	176.2087554931641	620.1331787109375	1299.566284179688	168.4754180908203	658.625732421875	1084.85693359375	196.1800384521484	594.9957275390625	1067.419189453125	116.9216918945312	610.6892700195312	884.5350952148438	284.3150024414062	669.9722290039062	869.296875	242.2530364990234	668.134765625	998.254638671875	222.9101867675781	619.8037719726562	713.8248901367188	290.0374145507812	669.87939453125	791.0186157226562	250.1918182373047	620.3703002929688	797.4713745117188	301.525146484375	178.6551971435547	1411.692749023438	179.2180786132812	102.9751586914062	1351.780517578125	158.9847717285156	40.77532196044922	1070.015991210938	146.7657165527344	83.94901275634766	1058.157836914062	96.25839233398438	74.467529296875	846.3919677734375	216.1600341796875	14.79956722259521	848.025634765625	148.8984832763672	28.08838653564453	1012.571228027344	142.8498840332031	65.32013702392578	693.4048461914062	172.6478424072266	60.34617233276367	746.053955078125	203.520751953125	16.6230640411377	760.2192993164062	142.5379333496094	257.0714416503906	1635.475830078125	187.7684783935547	423.9972839355469	1656.103759765625	308.5130310058594	293.8287353515625	1659.314086914062	318.4408874511719	432.8828125	1634.156616210938	157.6929626464844	548.981201171875	849.304443359375	219.5040130615234	153.2813720703125	843.2579956054688	160.3316040039062	205.5505218505859	895.50341796875	266.9509887695312	459.9860229492188	897.1446533203125	300.0765686035156	494.3920593261719	445.7170715332031	333.5643005371094	523.5474243164062	597.109375	316.1310119628906	488.6665954589844	34.02273941040039	294.6941833496094	502.2244262695312	293.8853454589844	347.2776489257812	394.1624755859375	39.54722213745117	521.7965698242188	372.6816711425781	47.72536087036133	443.6240844726562	487.8930358886719	38.55101013183594	448.3523254394531	426.9221801757812	39.81558609008789	244.7651062011719	151.1040496826172	465.1670227050781	236.5958709716797	138.3288879394531	718.3423461914062	222.6591186523438	144.1975250244141	154.3946075439453	-81.28937530517578	138.3257751464844	343.2242126464844	155.7425231933594	210.7996673583984	36.65256500244141	82.32281494140625	242.6604461669922	75.22602844238281	33.03472137451172	137.5992889404297	65.93794250488281	14.97163200378418	185.7848052978516	202.4561157226562	-131.1649780273438	
